<svg id="Layer_1" data-name="Layer 1" xmlns="http://www.w3.org/2000/svg" viewBox="0 0 20 20"><defs><style>.cls-1{fill:#d22d33;}.cls-2{fill:none;stroke:#fff;stroke-linecap:round;stroke-linejoin:round;stroke-width:2px;}.cls-3{fill:#fff;}</style></defs><circle class="cls-1" cx="10" cy="10" r="10"/><g id="check-2"><path id="패스_871" data-name="패스 871" class="cls-2" d="M16.69,5"/><path id="패스_871-2" data-name="패스 871" class="cls-2" d="M8.29,13.39"/><path id="패스_871-3" data-name="패스 871" class="cls-2" d="M4.94,10"/></g><path class="cls-3" d="M14.14,5.17a1,1,0,0,0-1.37.37l-4,6.81L6.57,10a1,1,0,0,0-1.42,0,1,1,0,0,0,0,1.41l3.16,3.32.11.08s.06.07.11.09a.2.2,0,0,0,.08,0l.08,0A1,1,0,0,0,9,15H9a1.13,1.13,0,0,0,.32-.06l.08,0a1.24,1.24,0,0,0,.27-.17l0,0h0a.62.62,0,0,0,.17-.22l4.64-8A1,1,0,0,0,14.14,5.17Z"/></svg>