<svg id="그룹_278" data-name="그룹 278" xmlns="http://www.w3.org/2000/svg" xmlns:xlink="http://www.w3.org/1999/xlink" width="22.306" height="14.952" viewBox="0 0 22.306 14.952">
  <defs>
    <clipPath id="clip-path">
      <rect id="사각형_312" data-name="사각형 312" width="22.306" height="14.952" fill="#828282"/>
    </clipPath>
  </defs>
  <g id="그룹_277" data-name="그룹 277" clip-path="url(#clip-path)">
    <path id="패스_113" data-name="패스 113" d="M.64,7.351A1.749,1.749,0,0,0,2.39,9.1h.184v1.816c0,.617.5.651,1.116.651h.935c.618,0,1.118-.034,1.118-.651V9.1H8.382v.311a.34.34,0,0,0,.338.338h4.257a.34.34,0,0,0,.339-.338V9.1h2.638v1.816c0,.617.5.651,1.116.651H18c.62,0,1.12-.034,1.12-.651V9.1h.184a1.75,1.75,0,0,0,1.75-1.75V7.113H.64Z" transform="translate(0.304 3.383)" fill="#828282"/>
    <path id="패스_114" data-name="패스 114" d="M21.986,3.267H19.418a1.036,1.036,0,0,0-.789.465,12.072,12.072,0,0,1-.513-1.694C17.823.7,16.311,0,14.742,0H7.565C6,0,4.483.7,4.191,2.038a11.879,11.879,0,0,1-.513,1.694,1.036,1.036,0,0,0-.788-.465H.322c-.316,0-.394.537-.258.745s.261.378.483.723a.676.676,0,0,0,.578.311H2.4l.285.518C1.755,7.145.316,8.883,1.122,9.807h.984V8.974c0-.617.128-1.118,1.023-1.118a18.052,18.052,0,0,1,3.048.683.825.825,0,0,1,.567.723v.544h8.819V9.262a.828.828,0,0,1,.565-.723,18.12,18.12,0,0,1,3.05-.683c.9,0,1.021.5,1.021,1.118v.832h.987c.806-.924-.636-2.662-1.563-4.242l.28-.518h1.279a.673.673,0,0,0,.577-.311c.221-.345.348-.516.483-.723s.058-.745-.257-.745M12.018,5.041h-7.4l.838-2.793c.263-1.114,2.656-1.086,2.656-1.086h6.082s2.364-.089,2.657,1.086l.837,2.793Z" transform="translate(0 0)" fill="#828282"/>
  </g>
</svg>
