<svg id="그룹_276" data-name="그룹 276" xmlns="http://www.w3.org/2000/svg" xmlns:xlink="http://www.w3.org/1999/xlink" width="18.693" height="18.437" viewBox="0 0 18.693 18.437">
  <defs>
    <clipPath id="clip-path">
      <rect id="사각형_311" data-name="사각형 311" width="18.693" height="18.437" fill="#828282"/>
    </clipPath>
  </defs>
  <g id="그룹_275" data-name="그룹 275" clip-path="url(#clip-path)">
    <path id="패스_112" data-name="패스 112" d="M14.8,14.23a1.368,1.368,0,0,0,1.085-1.337V2.553a1.372,1.372,0,0,0-1.369-1.372h-2.57V.544A.544.544,0,0,0,11.4,0H7.29a.544.544,0,0,0-.544.544v.637H4.177A1.371,1.371,0,0,0,2.808,2.553V12.892A1.367,1.367,0,0,0,3.892,14.23L0,18.437H2.3l.563-.609H15.832l.564.609h2.3ZM4.542,3.947a1,1,0,0,1,1-1.006h7.6a1.007,1.007,0,0,1,1.007,1.006V7.322a1.006,1.006,0,0,1-1.007,1h-7.6a1,1,0,0,1-1-1ZM3.9,10.972v-.906A.269.269,0,0,1,4.17,9.8H6.209a.27.27,0,0,1,.271.269v.906a.27.27,0,0,1-.271.271H4.17a.269.269,0,0,1-.269-.271m8.631,3.29.533.572H5.627l.533-.572ZM3.99,16.6l.731-.787h9.251l.729.787Zm10.8-5.633a.268.268,0,0,1-.269.271H12.483a.269.269,0,0,1-.271-.271v-.906a.269.269,0,0,1,.271-.269h2.039a.268.268,0,0,1,.269.269Z" transform="translate(0 0)" fill="#828282"/>
  </g>
</svg>
