<svg id="그룹_57" data-name="그룹 57" xmlns="http://www.w3.org/2000/svg" xmlns:xlink="http://www.w3.org/1999/xlink" width="31.584" height="30.099" viewBox="0 0 31.584 30.099">
  <defs>
    <clipPath id="clip-path">
      <rect id="사각형_81" data-name="사각형 81" width="31.584" height="30.099" fill="#585858"/>
    </clipPath>
  </defs>
  <g id="그룹_56" data-name="그룹 56" clip-path="url(#clip-path)">
    <path id="패스_82" data-name="패스 82" d="M13.336,0l7.456,0a.389.389,0,0,1,.391.4c-.105,6.234-6.247,7.229-6.308,7.238a.392.392,0,0,1-.059.005H6.94a.393.393,0,0,1-.39-.425C7.079.967,13.273.013,13.336,0m13.6,20.015H23.827c-.6,3.313-2.914,10.079-11.808,10.079C.243,30.1,0,18.232,0,18.232V11.106a.39.39,0,0,1,.391-.391H26.933a4.652,4.652,0,1,1,0,9.3m-.109-6.938a2.258,2.258,0,1,0,2.258,2.259,2.259,2.259,0,0,0-2.258-2.259" fill="#585858"/>
  </g>
</svg>
