<svg xmlns="http://www.w3.org/2000/svg" xmlns:xlink="http://www.w3.org/1999/xlink" width="28.735" height="33.97" viewBox="0 0 28.735 33.97">
  <defs>
    <clipPath id="clip-path">
      <rect id="사각형_4" data-name="사각형 4" width="28.735" height="33.97" fill="#585858"/>
    </clipPath>
  </defs>
  <g id="그룹_7" data-name="그룹 7" transform="translate(70 59)">
    <g id="그룹_6" data-name="그룹 6" transform="translate(-70 -59)" clip-path="url(#clip-path)">
      <path id="패스_6" data-name="패스 6" d="M16.861,7.088a7.089,7.089,0,1,0-7.088,7.088,7.09,7.09,0,0,0,7.088-7.088" transform="translate(4.596 0.001)" fill="#585858"/>
      <path id="패스_7" data-name="패스 7" d="M26.909,22.745a1.827,1.827,0,0,1-1.826-1.826,10.715,10.715,0,1,0-21.43,0,1.826,1.826,0,0,1-3.653,0,14.367,14.367,0,1,1,28.735,0,1.825,1.825,0,0,1-1.826,1.826" transform="translate(0 11.226)" fill="#585858"/>
    </g>
  </g>
</svg>
