<svg xmlns="http://www.w3.org/2000/svg" xmlns:xlink="http://www.w3.org/1999/xlink" width="49.774" height="23.306" viewBox="0 0 49.774 23.306">
  <defs>
    <clipPath id="clip-path">
      <rect id="사각형_1053" data-name="사각형 1053" width="49.774" height="23.306" fill="#585858"/>
    </clipPath>
  </defs>
  <g id="그룹_940" data-name="그룹 940" transform="translate(0 0)">
    <g id="그룹_939" data-name="그룹 939" transform="translate(0 0)" clip-path="url(#clip-path)">
      <path id="패스_872" data-name="패스 872" d="M37.712,57.624c-.011.5.312.693.746.674a1.813,1.813,0,0,0,1.18-.648l.027-1.257c-1.446.251-1.941.654-1.953,1.231" transform="translate(-28.611 -42.783)" fill="#585858"/>
      <path id="패스_873" data-name="패스 873" d="M178.943,77.7c-.149,0-.273.144-.27.42s.1.431.277.434a.282.282,0,0,0,.244-.139l-.005-.607a.353.353,0,0,0-.246-.108" transform="translate(-135.552 -58.95)" fill="#585858"/>
      <path id="패스_874" data-name="패스 874" d="M125.2,52.009c-.01.491.314.689.771.669a1.675,1.675,0,0,0,1.16-.665l.026-1.263c-1.448.265-1.945.7-1.957,1.259" transform="translate(-94.985 -38.502)" fill="#585858"/>
      <path id="패스_875" data-name="패스 875" d="M154.793,77.208c-.139,0-.261.1-.286.3l.538.009c0-.187-.083-.307-.253-.31" transform="translate(-117.218 -58.574)" fill="#585858"/>
      <path id="패스_876" data-name="패스 876" d="M188.181,77.856c-.179,0-.279.166-.277.427s.1.429.284.432.279-.163.277-.422-.105-.434-.284-.437" transform="translate(-142.555 -59.066)" fill="#585858"/>
      <path id="패스_877" data-name="패스 877" d="M102.62,44.033a1.424,1.424,0,0,0-1.266,1.379l2.313-.1c.017-.812-.317-1.309-1.048-1.277" transform="translate(-76.893 -33.405)" fill="#585858"/>
      <path id="패스_878" data-name="패스 878" d="M46.724.029,2.256,6.757A2.653,2.653,0,0,0,0,9.38v9.03a2.653,2.653,0,0,0,2.519,2.65L46.988,23.3a2.653,2.653,0,0,0,2.786-2.65v-18A2.653,2.653,0,0,0,46.724.029M5.159,16.569a2.968,2.968,0,0,1-2.3-.9l.617-.772a2.3,2.3,0,0,0,1.717.733c.787-.035,1.238-.446,1.25-1.023.013-.624-.425-.8-1.021-1.052l-.894-.37a1.8,1.8,0,0,1-1.289-1.738A2.131,2.131,0,0,1,5.424,9.459a2.546,2.546,0,0,1,1.955.779l-.554.713A1.9,1.9,0,0,0,5.4,10.4c-.664.029-1.1.384-1.116.933-.012.587.505.787,1.031.987l.885.361a1.755,1.755,0,0,1,1.288,1.794,2.23,2.23,0,0,1-2.334,2.094m6.859-.425-.832.037L11.11,15.6h-.027a2.539,2.539,0,0,1-1.563.776,1.279,1.279,0,0,1-1.4-1.417c.023-1.1.92-1.706,2.951-2.028,0-.6-.189-1.108-.906-1.076a2.763,2.763,0,0,0-1.418.584l-.365-.71a3.833,3.833,0,0,1,1.978-.757c1.212-.054,1.752.732,1.724,2.091Zm3.355.158c-.4,1.115-.932,1.874-1.958,1.919a1.61,1.61,0,0,1-.609-.075l.212-.847a1.209,1.209,0,0,0,.353.059c.531-.023.849-.447,1.038-1l.1-.358-1.822-5,1.044-.047.847,2.6c.132.45.272.955.412,1.424l.044,0,.411-1.46.834-2.669.991-.044Zm7.156-.624-4.546.2.166-7.9,1.5-.066-.138,6.579,3.044-.135Zm5.431-2.791-3.5.155A1.409,1.409,0,0,0,26,14.467a2.4,2.4,0,0,0,1.287-.473l.487.938a3.671,3.671,0,0,1-2,.751c-1.582.07-2.8-1.039-2.755-3a3.105,3.105,0,0,1,2.715-3.268c1.562-.07,2.349,1.1,2.314,2.757a3.121,3.121,0,0,1-.086.719m4.334,1.688h-.032a2.938,2.938,0,0,1-1.812.906,1.608,1.608,0,0,1-1.723-1.777c.028-1.341,1.073-2.091,3.467-2.464-.008-.614-.253-1.072-.986-1.039a3.457,3.457,0,0,0-1.647.664l-.54-1.059a4.873,4.873,0,0,1,2.5-.937c1.508-.067,2.263.849,2.225,2.659l-.077,3.654L32.4,15.24ZM33.655,19.7l-.015-1.826.349.006L34,19.4l.708.013,0,.306Zm1.333.023-.012-1.381.345.006.012,1.382Zm.161-1.6a.2.2,0,0,1-.209-.2.187.187,0,0,1,.206-.193.2.2,0,0,1,.207.2.19.19,0,0,1-.2.194M36.4,19.747l-.4-.007L35.54,18.35l.349.006.2.692c.034.136.073.28.11.421h.012c.032-.14.069-.282.1-.417l.188-.685.333.006Zm1.706-.559-.814-.014a.365.365,0,0,0,.369.352.516.516,0,0,0,.3-.091l.12.224a.792.792,0,0,1-.461.145.677.677,0,0,1-.662-.734.645.645,0,0,1,.61-.717c.363.006.555.288.558.671a.7.7,0,0,1-.015.165M38.423,9.5c-.516.023-1.145.408-1.54,1.424L36.8,15.045l-1.711.076.145-6.909,1.407-.063.091,1.216.047,0a2.48,2.48,0,0,1,1.893-1.476A1.723,1.723,0,0,1,39.438,8L39.1,9.581a1.914,1.914,0,0,0-.677-.081M39.5,19.836a.932.932,0,0,1-.639-.278l.2-.248a.69.69,0,0,0,.445.21c.182,0,.278-.077.277-.2s-.108-.18-.264-.251l-.235-.108a.544.544,0,0,1-.358-.5.537.537,0,0,1,.6-.517.779.779,0,0,1,.55.244l-.175.226a.558.558,0,0,0-.372-.157c-.153,0-.252.067-.251.188s.126.18.276.244l.23.105a.518.518,0,0,1,.356.5.56.56,0,0,1-.637.541m1.334.024c-.314-.006-.436-.215-.439-.526l-.005-.612-.187,0,0-.269.2-.014.037-.369.29.005,0,.37.326.006,0,.286-.326-.006.005.612c0,.158.063.233.181.235a.372.372,0,0,0,.13-.027l.059.265a.808.808,0,0,1-.278.047m1.356-.011-.028-.2h-.01a.508.508,0,0,1-.42.224c-.283-.005-.408-.214-.411-.56l-.007-.864.347.006.007.817c0,.215.059.29.186.292.109,0,.179-.046.268-.168l-.008-.933.347.006.012,1.381Zm1.52.027-.029-.144h-.007a.522.522,0,0,1-.364.171c-.328-.006-.543-.281-.546-.732s.263-.723.548-.718a.46.46,0,0,1,.337.157l-.016-.217,0-.486.347.006.016,1.969Zm.653.012-.012-1.382.345.006.011,1.381Zm.161-1.6a.2.2,0,0,1-.209-.2.188.188,0,0,1,.206-.194.2.2,0,0,1,.207.2.19.19,0,0,1-.2.194m1.108,1.657a.681.681,0,0,1-.641-.734.643.643,0,0,1,.629-.717.684.684,0,0,1,.641.739.641.641,0,0,1-.629.711m.627-5.318-1.886.084.094-4.469c.024-1.161-.275-1.566-.98-1.534a2.2,2.2,0,0,0-1.519.917l-.109,5.2-1.873.083.159-7.56,1.54-.068.107.993.051,0a3.509,3.509,0,0,1,2.36-1.291c1.552-.069,2.2,1.036,2.155,2.939Z" transform="translate(0 0.001)" fill="#585858"/>
    </g>
  </g>
</svg>
