<svg id="그룹_940" data-name="그룹 940" xmlns="http://www.w3.org/2000/svg" xmlns:xlink="http://www.w3.org/1999/xlink" width="38.422" height="17.991" viewBox="0 0 38.422 17.991">
  <defs>
    <clipPath id="clip-path">
      <rect id="사각형_1053" data-name="사각형 1053" width="38.422" height="17.991" fill="#585858"/>
    </clipPath>
  </defs>
  <g id="그룹_939" data-name="그룹 939" transform="translate(0 0)" clip-path="url(#clip-path)">
    <path id="패스_872" data-name="패스 872" d="M37.712,57.343c-.008.388.241.535.576.52a1.4,1.4,0,0,0,.911-.5l.021-.97c-1.116.193-1.5.5-1.508.95" transform="translate(-30.686 -45.887)" fill="#585858"/>
    <path id="패스_873" data-name="패스 873" d="M178.882,77.7c-.115,0-.211.111-.209.324s.079.333.214.335a.218.218,0,0,0,.189-.107l0-.468a.273.273,0,0,0-.19-.083" transform="translate(-145.386 -63.227)" fill="#585858"/>
    <path id="패스_874" data-name="패스 874" d="M125.2,51.722c-.008.379.243.532.6.516a1.293,1.293,0,0,0,.9-.513l.02-.975c-1.118.2-1.5.54-1.511.972" transform="translate(-101.876 -41.295)" fill="#585858"/>
    <path id="패스_875" data-name="패스 875" d="M154.727,77.208c-.107,0-.2.076-.22.232l.415.007c0-.145-.064-.237-.2-.239" transform="translate(-125.723 -62.824)" fill="#585858"/>
    <path id="패스_876" data-name="패스 876" d="M188.118,77.856c-.138,0-.216.128-.214.33s.081.331.219.333.216-.126.214-.326-.081-.335-.219-.337" transform="translate(-152.898 -63.351)" fill="#585858"/>
    <path id="패스_877" data-name="패스 877" d="M102.331,44.033a1.1,1.1,0,0,0-.977,1.065l1.786-.079c.013-.627-.245-1.01-.809-.986" transform="translate(-82.472 -35.829)" fill="#585858"/>
    <path id="패스_878" data-name="패스 878" d="M36.068.023,1.742,5.216A2.048,2.048,0,0,0,0,7.241v6.97a2.048,2.048,0,0,0,1.945,2.045l34.327,1.731a2.048,2.048,0,0,0,2.151-2.045V2.047A2.048,2.048,0,0,0,36.068.023M3.983,12.79a2.291,2.291,0,0,1-1.773-.7l.476-.6a1.778,1.778,0,0,0,1.326.566c.608-.027.956-.344.965-.79.01-.482-.328-.617-.788-.812l-.69-.285a1.389,1.389,0,0,1-1-1.342A1.645,1.645,0,0,1,4.187,7.3,1.966,1.966,0,0,1,5.7,7.9l-.428.55a1.463,1.463,0,0,0-1.1-.425c-.512.023-.853.3-.861.72-.01.453.39.608.8.762l.683.278a1.355,1.355,0,0,1,.994,1.385,1.722,1.722,0,0,1-1.8,1.617m5.294-.328-.642.028-.059-.45h-.02a1.96,1.96,0,0,1-1.207.6.987.987,0,0,1-1.082-1.094c.018-.848.71-1.317,2.278-1.566,0-.46-.146-.855-.7-.831A2.133,2.133,0,0,0,6.751,9.6l-.282-.548A2.959,2.959,0,0,1,8,8.468c.936-.041,1.353.565,1.331,1.614Zm2.59.122c-.311.861-.719,1.447-1.512,1.482a1.243,1.243,0,0,1-.47-.058l.164-.654a.933.933,0,0,0,.272.045c.41-.018.655-.345.8-.775l.081-.276L9.8,8.489l.806-.036.654,2c.1.348.21.738.318,1.1h.034l.317-1.127.644-2.061.765-.034Zm5.524-.482-3.509.156.128-6.1L15.169,6.1l-.107,5.079,2.35-.1Zm4.192-2.154-2.7.12a1.088,1.088,0,0,0,1.19,1.1,1.85,1.85,0,0,0,.994-.365l.376.724a2.834,2.834,0,0,1-1.546.58,2.028,2.028,0,0,1-2.126-2.319,2.4,2.4,0,0,1,2.1-2.523c1.206-.054,1.813.85,1.786,2.128a2.409,2.409,0,0,1-.067.555m3.346,1.3H24.9a2.268,2.268,0,0,1-1.4.7,1.241,1.241,0,0,1-1.33-1.372c.022-1.035.828-1.614,2.677-1.9-.007-.474-.2-.827-.761-.8a2.669,2.669,0,0,0-1.272.513L22.4,7.571a3.762,3.762,0,0,1,1.931-.723C25.5,6.8,26.081,7.5,26.051,8.9l-.059,2.821-.983.044Zm1.05,3.955-.012-1.41.27,0,.01,1.173.547.01,0,.236Zm1.029.018L27,14.157l.266,0,.009,1.067Zm.125-1.236a.156.156,0,0,1-.162-.155.145.145,0,0,1,.159-.149.153.153,0,0,1,.16.155.147.147,0,0,1-.157.149m.969,1.255-.31-.006-.357-1.072.27,0,.154.534c.026.105.056.216.085.325h.009c.025-.108.053-.218.079-.322l.145-.529.257,0Zm1.317-.432L28.79,14.8a.281.281,0,0,0,.285.271A.4.4,0,0,0,29.3,15l.092.173a.611.611,0,0,1-.356.112.522.522,0,0,1-.511-.567A.5.5,0,0,1,29,14.166c.281,0,.428.223.431.518a.541.541,0,0,1-.012.127m.242-7.478c-.4.018-.884.315-1.189,1.1L28.4,11.614l-1.321.059.112-5.333,1.086-.048.071.939.036,0a1.914,1.914,0,0,1,1.461-1.14,1.33,1.33,0,0,1,.6.088L30.183,7.4a1.478,1.478,0,0,0-.523-.063m.833,7.978A.72.72,0,0,1,30,15.1l.153-.192a.533.533,0,0,0,.344.162c.14,0,.214-.059.214-.158s-.083-.139-.2-.194l-.181-.083a.42.42,0,0,1-.276-.384.414.414,0,0,1,.463-.4.6.6,0,0,1,.424.188l-.135.175a.431.431,0,0,0-.287-.121c-.118,0-.194.052-.194.145s.1.139.213.189l.177.081a.4.4,0,0,1,.275.387.432.432,0,0,1-.492.418m1.029.018c-.242,0-.337-.166-.339-.406l0-.472-.144,0v-.208l.156-.011.029-.285.224,0,0,.286.251,0,0,.221-.251,0,0,.472c0,.122.049.18.14.182a.287.287,0,0,0,.1-.021l.045.2a.624.624,0,0,1-.215.036m1.047-.008-.021-.153h-.007a.392.392,0,0,1-.325.173c-.219,0-.315-.165-.317-.432l-.006-.667.268,0,.005.63c0,.166.046.224.144.225s.138-.036.207-.13l-.006-.72.268,0,.009,1.066Zm1.173.021-.023-.111h-.006a.4.4,0,0,1-.281.132c-.253,0-.419-.217-.422-.565s.2-.558.423-.554a.355.355,0,0,1,.26.121l-.012-.168,0-.375.268,0,.013,1.52Zm.5.009-.009-1.067.266,0,.009,1.066Zm.125-1.236a.157.157,0,0,1-.162-.155.145.145,0,0,1,.159-.15.154.154,0,0,1,.16.155.147.147,0,0,1-.157.15m.856,1.279a.526.526,0,0,1-.495-.567.5.5,0,0,1,.485-.553.528.528,0,0,1,.495.571.5.5,0,0,1-.485.549m.484-4.105-1.456.065.072-3.45c.019-.9-.212-1.209-.757-1.184a1.7,1.7,0,0,0-1.172.708l-.084,4.013-1.446.064.123-5.836,1.188-.053.083.767.04,0a2.709,2.709,0,0,1,1.822-1c1.2-.053,1.695.8,1.664,2.269Z" transform="translate(0 0.001)" fill="#585858"/>
  </g>
</svg>
