<svg xmlns="http://www.w3.org/2000/svg" xmlns:xlink="http://www.w3.org/1999/xlink" width="34.206" height="31.763" viewBox="0 0 34.206 31.763">
  <defs>
    <clipPath id="clip-path">
      <path id="패스_87" data-name="패스 87" d="M10.443,28.949a2.815,2.815,0,1,0,2.814-2.815,2.814,2.814,0,0,0-2.814,2.815m16.546,0A2.815,2.815,0,1,0,29.8,26.134a2.814,2.814,0,0,0-2.813,2.815M12.233,12.715V7.149a.786.786,0,0,1,1.572,0v5.566a.786.786,0,0,1-1.572,0m5.7,0V7.149a.785.785,0,0,1,1.571,0v5.566a.785.785,0,0,1-1.571,0m5.348,0V7.149a.785.785,0,0,1,1.571,0v5.566a.785.785,0,1,1-1.571,0m5.348,0V7.149a.786.786,0,0,1,1.572,0v5.566a.786.786,0,0,1-1.572,0M.87,0C-.31,0-.291,2.094.937,2.094H3.988L8.84,16.208a4.471,4.471,0,0,0-2.029,3.928c.21,3.135,2.487,4.124,4.908,4.124l21.212-.008c1.731,0,1.7-3.069-.1-3.069,0,0-21.12.04-21.835,0a1.213,1.213,0,0,1,.066-2.421c1.919-.32,21.486-3.339,21.513-3.344.864-.167,1.562-.474,1.562-1.786v-8.4c0-.753-.306-1.268-1.451-1.268H8.053L6.347,0Z" transform="translate(0)" fill="#585858"/>
    </clipPath>
  </defs>
  <g id="그룹_65" data-name="그룹 65" transform="translate(0)">
    <g id="그룹_64" data-name="그룹 64" transform="translate(0)" clip-path="url(#clip-path)">
      <rect id="사각형_83" data-name="사각형 83" width="47.189" height="47.189" transform="translate(-16.192 15.882) rotate(-45)" fill="#585858"/>
    </g>
  </g>
</svg>
